<svg width="112" height="60" xmlns="http://www.w3.org/2000/svg" xmlns:xlink="http://www.w3.org/1999/xlink">
  <defs>
    <path id="a" d="M0 0h9.357v6.206H0z"/>
    <path id="c" d="M0 0h8.636v6.206H0z"/>
  </defs>
  <g fill="none" fill-rule="evenodd">
    <path d="M55.669 6.256a3.982 3.982 0 1 1 0 7.964 3.982 3.982 0 0 1 0-7.964m24.86 37.365L60.014 19.51a10.239 10.239 0 0 0 5.894-9.273C65.907 4.584 61.323 0 55.67 0S45.43 4.584 45.43 10.238a10.24 10.24 0 0 0 6.078 9.357L31.064 43.62c-.726.852-.12 2.166 1 2.166h15.18c1.15 0 1.745-1.37.962-2.21l-4.041-4.34 11.632-13.703L67.43 39.238l-4.042 4.339c-.783.84-.187 2.21.962 2.21h15.18c1.12 0 1.727-1.313 1-2.166" fill="#A52143"/>
    <g transform="translate(0 53.794)">
      <mask id="b" fill="#fff">
        <use xlink:href="#a"/>
      </mask>
      <path d="M8.224 3.112c0-1.486-1.182-2.229-3.546-2.229-2.37 0-3.555.743-3.555 2.23 0 1.48 1.185 2.22 3.555 2.22 2.364 0 3.546-.74 3.546-2.22M0 3.112C0 1.037 1.56 0 4.678 0c3.12 0 4.679 1.038 4.679 3.112 0 2.063-1.56 3.094-4.679 3.094C1.56 6.206 0 5.175 0 3.112" fill="#FFF" mask="url(#b)"/>
    </g>
    <path d="M12.122 54.895v4.413a.55.55 0 0 1-.15.4.501.501 0 0 1-.377.156.523.523 0 0 1-.395-.155.55.55 0 0 1-.15-.4v-4.505c0-.285.079-.502.233-.65.156-.15.38-.223.672-.223.234 0 .455.05.663.15.207.1.446.262.715.486l5.205 4.296v-4.368c0-.164.05-.299.15-.405a.506.506 0 0 1 .386-.16c.157 0 .286.054.385.16.1.106.15.241.15.405v4.577c0 .243-.073.436-.22.577-.146.143-.354.215-.623.215-.421 0-.88-.21-1.378-.629l-5.266-4.34ZM21.769 54.495c0-.164.049-.299.149-.405a.507.507 0 0 1 .386-.16c.158 0 .287.054.386.16.1.106.15.241.15.405v4.813a.55.55 0 0 1-.15.4.512.512 0 0 1-.386.156.512.512 0 0 1-.386-.155.55.55 0 0 1-.15-.4v-4.814ZM28.992 59.864c-.35 0-.661-.168-.93-.5l-3.564-4.524a.601.601 0 0 1-.14-.39c0-.146.056-.268.167-.364a.464.464 0 0 1 .39-.146.57.57 0 0 1 .4.209l3.695 4.732 3.695-4.732a.547.547 0 0 1 .395-.209.447.447 0 0 1 .386.146.493.493 0 0 1 .15.372.634.634 0 0 1-.15.382l-3.555 4.523c-.269.333-.582.5-.939.5M42.527 56.906c0-1.486-1.182-2.229-3.546-2.229-2.37 0-3.555.743-3.555 2.23 0 1.48 1.185 2.22 3.555 2.22 2.364 0 3.546-.74 3.546-2.22m-8.224 0c0-2.075 1.56-3.113 4.678-3.113 3.119 0 4.679 1.038 4.679 3.112C43.66 58.97 42.1 60 38.98 60c-3.118 0-4.678-1.031-4.678-3.094M46.425 54.895v4.413a.55.55 0 0 1-.15.4.501.501 0 0 1-.377.156.523.523 0 0 1-.395-.155.55.55 0 0 1-.15-.4v-4.505c0-.285.079-.502.233-.65.156-.15.38-.223.672-.223.234 0 .455.05.663.15.207.1.446.262.715.486l5.205 4.296v-4.368c0-.164.05-.299.15-.405a.506.506 0 0 1 .386-.16c.157 0 .286.054.385.16.1.106.15.241.15.405v4.577c0 .243-.073.436-.22.577-.146.143-.354.215-.623.215-.421 0-.88-.21-1.378-.629l-5.266-4.34Z" fill="#FFF"/>
    <g transform="translate(61.7 53.794)">
      <mask id="d" fill="#fff">
        <use xlink:href="#c"/>
      </mask>
      <path d="M2.769 1.092c-.483.133-.879.37-1.19.71-.31.34-.464.773-.464 1.3 0 .529.155.964.464 1.307.311.342.707.582 1.19.719.483.136 1.051.204 1.707.204 1.065 0 2.11-.13 3.133-.391v-1.41H4.415a.37.37 0 0 1-.277-.114.409.409 0 0 1-.11-.295c0-.122.036-.221.106-.297a.363.363 0 0 1 .28-.113H8.12c.157 0 .283.045.377.136.094.091.14.216.14.373v1.702c0 .34-.195.592-.588.755-.836.352-2.024.528-3.563.528a8.476 8.476 0 0 1-1.791-.173 4.708 4.708 0 0 1-1.413-.536 2.54 2.54 0 0 1-.948-.97C.111 4.124 0 3.649 0 3.103c0-.546.111-1.021.333-1.424a2.54 2.54 0 0 1 .948-.97c.41-.242.881-.421 1.413-.536A8.476 8.476 0 0 1 4.485 0c.62 0 1.24.047 1.86.141.621.095 1.103.208 1.449.341.38.122.57.291.57.51 0 .115-.035.205-.105.268a.41.41 0 0 1-.29.096c-.117 0-.329-.04-.636-.119a12.704 12.704 0 0 0-1.215-.231A11.064 11.064 0 0 0 4.476.892c-.655 0-1.224.067-1.707.2" fill="#FFF" mask="url(#d)"/>
    </g>
    <path d="M90.767 56.906c0-1.486-1.182-2.229-3.546-2.229-2.37 0-3.554.743-3.554 2.23 0 1.48 1.184 2.22 3.554 2.22 2.364 0 3.546-.74 3.546-2.22m-8.224 0c0-2.075 1.56-3.113 4.678-3.113 3.12 0 4.679 1.038 4.679 3.112C91.9 58.97 90.34 60 87.22 60c-3.118 0-4.678-1.031-4.678-3.094M101.36 54.495c0-.164.05-.299.15-.405a.506.506 0 0 1 .386-.16c.158 0 .286.054.386.16.1.106.15.241.15.405v2.393c0 1.02-.367 1.79-1.098 2.311-.731.522-1.758.783-3.081.783-1.322 0-2.35-.26-3.081-.783-.731-.522-1.097-1.292-1.097-2.311v-2.393c0-.164.05-.299.15-.405a.506.506 0 0 1 .386-.16c.157 0 .286.054.386.16a.572.572 0 0 1 .149.405v2.393c0 .734.27 1.29.812 1.666.541.375 1.306.564 2.295.564.99 0 1.754-.189 2.295-.564.541-.377.812-.932.812-1.666v-2.393ZM109.815 56.77c.503-.176.755-.476.755-.9 0-.432-.25-.734-.75-.906-.5-.173-1.313-.26-2.436-.26-.866 0-1.66.04-2.379.118v2.084c.696.085 1.489.128 2.379.128 1.117 0 1.928-.089 2.431-.264m.825-2.475c.702.309 1.053.834 1.053 1.574 0 .74-.351 1.265-1.053 1.574-.702.31-1.79.464-3.265.464-.796 0-1.586-.036-2.37-.109v1.51c0 .164-.05.298-.149.401a.515.515 0 0 1-.386.155.514.514 0 0 1-.386-.155.553.553 0 0 1-.15-.4v-4.46c0-.242.047-.428.14-.559.094-.13.273-.226.536-.287.574-.115 1.496-.172 2.765-.172 1.475 0 2.563.154 3.265.464M74.113 56.843v-2.011a25.932 25.932 0 0 1 2.633-.128c1.071 0 1.845.087 2.322.26.477.172.715.465.715.877 0 .407-.238.696-.715.865-.477.17-1.25.255-2.322.255-.977 0-1.854-.04-2.633-.118m6.344.144c.294-.292.44-.673.44-1.146 0-.727-.337-1.245-1.013-1.55-.675-.307-1.725-.46-3.147-.46-1.422 0-2.44.066-3.054.2-.252.06-.421.154-.509.282-.088.127-.132.306-.132.537v4.459c0 .163.05.297.15.4.1.103.228.155.386.155a.513.513 0 0 0 .386-.155c.1-.103.15-.237.15-.4l-.001-1.593c.626.061 1.282.097 1.967.11h1.368a9.36 9.36 0 0 0 1.598-.187l.55.03c.16.008.286.14.286.302v1.385a.508.508 0 1 0 1.016 0V57.97c0-.39-.17-.741-.44-.984" fill="#FFF"/>
  </g>
</svg>