<?xml version="1.0" encoding="UTF-8"?>
<svg width="15px" height="13px" viewBox="0 0 15 13" version="1.1" xmlns="http://www.w3.org/2000/svg" xmlns:xlink="http://www.w3.org/1999/xlink">
    <title>suitcase</title>
    <g id="Desktop" stroke="none" stroke-width="1" fill="none" fill-rule="evenodd">
        <g id="Kariera" transform="translate(-877.000000, -991.000000)" fill="#000000" fill-rule="nonzero">
            <g id="row" transform="translate(153.000000, 940.000000)">
                <g id="suitcase" transform="translate(724.000000, 51.000000)">
                    <path d="M9.375,2.8125 C9.03,2.8125 8.75,2.5325 8.75,2.1875 L8.75,1.25 L6.25,1.25 L6.25,2.1875 C6.25,2.5325 5.97,2.8125 5.625,2.8125 C5.28,2.8125 5,2.5325 5,2.1875 L5,1.25 C5,0.560625 5.560625,0 6.25,0 L8.75,0 C9.439375,0 10,0.560625 10,1.25 L10,2.1875 C10,2.5325 9.72,2.8125 9.375,2.8125 Z" id="Path"></path>
                    <path d="M7.94375,8.3625 C7.83125,8.40625 7.66875,8.4375 7.5,8.4375 C7.33125,8.4375 7.16875,8.40625 7.01875,8.35 L0,6.0125 L0,10.78125 C0,11.73125 0.76875,12.5 1.71875,12.5 L13.28125,12.5 C14.23125,12.5 15,11.73125 15,10.78125 L15,6.0125 L7.94375,8.3625 Z" id="Path"></path>
                    <path d="M15,3.59375 L15,5.025 L7.65,7.475 C7.6,7.49375 7.55,7.5 7.5,7.5 C7.45,7.5 7.4,7.49375 7.35,7.475 L0,5.025 L0,3.59375 C0,2.64375 0.76875,1.875 1.71875,1.875 L13.28125,1.875 C14.23125,1.875 15,2.64375 15,3.59375 Z" id="Path"></path>
                </g>
            </g>
        </g>
    </g>
</svg>