<?xml version="1.0" encoding="UTF-8"?>
<svg width="120px" height="120px" viewBox="0 0 120 120" version="1.1" xmlns="http://www.w3.org/2000/svg" xmlns:xlink="http://www.w3.org/1999/xlink">
    <title>point </title>
    <g id="Desktop" stroke="none" stroke-width="1" fill="none" fill-rule="evenodd">
        <g id="Kontakt" transform="translate(-979.000000, -203.000000)">
            <g id="point-" transform="translate(979.000000, 203.000000)">
                <circle id="Oval" fill="#FFFFFF" opacity="0.049999997" cx="60" cy="60" r="60"></circle>
                <circle id="Oval" fill="#FFFFFF" opacity="0.200000003" cx="60" cy="60" r="40.6060606"></circle>
                <circle id="Oval" fill="#FFFFFF" cx="60" cy="60" r="23.6363636"></circle>
                <path d="M60,51 C61.1045395,51 62,51.8955449 62,53.0001884 C62,54.1044551 61.1045395,55 60,55 C58.8954605,55 58,54.1044551 58,53.0001884 C58,51.8955449 58.8954605,51 60,51 M71.8487733,68.9592622 L62.0197977,57.374568 C63.6880216,56.5893299 64.8435263,54.8898426 64.8435263,52.9193599 C64.8435263,50.2025586 62.6474926,48 59.9387396,48 C57.2299866,48 55.0339528,50.2025586 55.0339528,52.9193599 C55.0339528,54.9244377 56.2304175,56.6487903 57.9457096,57.414929 L48.1512267,68.9592622 C47.8034255,69.3689987 48.0940982,70 48.6308905,70 L55.9030964,70 C56.453542,70 56.7388252,69.3416108 56.3637174,68.9380006 L54.4274566,66.8532818 L60.0001796,60.2686694 L65.5725434,66.8532818 L63.6362826,68.9380006 C63.2611748,69.3416108 63.5468173,70 64.0969036,70 L71.3691095,70 C71.9059018,70 72.1965745,69.3689987 71.8487733,68.9592622" id="Fill-1" fill="#A52143"></path>
            </g>
        </g>
    </g>
</svg>