<?xml version="1.0" encoding="UTF-8"?>
<svg width="12px" height="17px" viewBox="0 0 12 17" version="1.1" xmlns="http://www.w3.org/2000/svg" xmlns:xlink="http://www.w3.org/1999/xlink">
    <title>pin</title>
    <g id="Desktop" stroke="none" stroke-width="1" fill="none" fill-rule="evenodd">
        <g id="Kariera" transform="translate(-1175.000000, -989.000000)" fill="#000000" fill-rule="nonzero">
            <g id="row" transform="translate(153.000000, 940.000000)">
                <g id="pin" transform="translate(1022.000000, 49.000000)">
                    <path d="M6,0 C2.68811297,0.00450890462 0.00439329651,2.75884975 0,6.15788796 C0,10.5787384 5.59,16.115706 5.8275,16.3491925 C5.92355327,16.445006 6.07644673,16.445006 6.1725,16.3491925 C6.41,16.115706 12,10.5787384 12,6.15788796 C11.9956067,2.75884975 9.31188703,0.00450890462 6,0 Z M6,8.98025328 C4.48121694,8.98025328 3.25,7.71663728 3.25,6.15788796 C3.25,4.59913864 4.48121694,3.33552265 6,3.33552265 C7.51878306,3.33552265 8.75,4.59913864 8.75,6.15788796 C8.74908978,7.71625017 7.51840587,8.9793191 6,8.98025328 L6,8.98025328 Z" id="Shape"></path>
                </g>
            </g>
        </g>
    </g>
</svg>